<svg width="24" height="24" viewBox="0 0 24 24" fill="none" xmlns="http://www.w3.org/2000/svg">
<g id="Two tone icons">
<path id="Vector" d="M11 21.9999C10.7348 21.9999 10.4804 21.8946 10.2929 21.7071C10.1053 21.5195 9.99999 21.2652 9.99999 20.9999V14.9999H4.99999C4.81553 15 4.63466 14.949 4.47738 14.8526C4.3201 14.7562 4.19254 14.6182 4.10881 14.4539C4.02508 14.2895 3.98844 14.1052 4.00294 13.9213C4.01745 13.7374 4.08253 13.5611 4.19099 13.4119L12.191 2.41195C12.3151 2.24109 12.4902 2.11393 12.691 2.04868C12.8919 1.98343 13.1083 1.98345 13.3091 2.04873C13.51 2.11402 13.685 2.24122 13.8091 2.41209C13.9332 2.58297 14 2.78875 14 2.99995V8.99995H19C19.1844 8.99992 19.3653 9.05091 19.5226 9.14729C19.6799 9.24366 19.8074 9.38165 19.8912 9.54601C19.9749 9.71037 20.0115 9.89468 19.997 10.0786C19.9825 10.2625 19.9174 10.4387 19.809 10.5879L11.809 21.5879C11.7162 21.7156 11.5945 21.8194 11.4539 21.891C11.3133 21.9627 11.1578 22 11 21.9999Z" fill="#7D7D7D"/>
</g>
</svg>
