<svg width="24" height="24" viewBox="0 0 24 24" fill="none" xmlns="http://www.w3.org/2000/svg">
<g id="Two tone icons">
<path id="Vector" d="M12 22C11.7916 21.9998 11.5884 21.9344 11.419 21.813L7.769 19.206C6.60428 18.3725 5.65489 17.2735 4.99946 16C4.34403 14.7266 4.00142 13.3153 4 11.883V4.42603C3.99993 4.27719 4.03309 4.13021 4.09706 3.99581C4.16103 3.86142 4.25419 3.743 4.36975 3.64919C4.48531 3.55538 4.62035 3.48855 4.76502 3.45358C4.90969 3.4186 5.06035 3.41637 5.206 3.44703C6.27467 3.67168 7.37802 3.67517 8.44809 3.45727C9.51815 3.23937 10.5323 2.8047 11.428 2.18003C11.5957 2.06288 11.7954 2.00006 12 2.00006C12.2046 2.00006 12.4043 2.06288 12.572 2.18003C13.4677 2.8048 14.4818 3.23954 15.5519 3.45744C16.622 3.67535 17.7253 3.6718 18.794 3.44703C18.9396 3.41637 19.0903 3.4186 19.235 3.45358C19.3797 3.48855 19.5147 3.55538 19.6303 3.64919C19.7458 3.743 19.839 3.86142 19.9029 3.99581C19.9669 4.13021 20.0001 4.27719 20 4.42603V11.883C19.9986 13.3153 19.656 14.7266 19.0005 16C18.3451 17.2735 17.3957 18.3725 16.231 19.206L12.581 21.813C12.4116 21.9344 12.2084 21.9998 12 22Z" fill="#434343"/>
<path id="Vector_2" d="M10.85 14.7C10.5848 14.7 10.3305 14.5946 10.143 14.407L8.54301 12.807C8.36085 12.6184 8.26006 12.3658 8.26234 12.1036C8.26461 11.8414 8.36978 11.5906 8.55519 11.4052C8.7406 11.2198 8.99141 11.1146 9.25361 11.1123C9.51581 11.1101 9.76841 11.2108 9.95701 11.393L10.85 12.286L13.543 9.59301C13.6353 9.4975 13.7456 9.42132 13.8676 9.36891C13.9896 9.3165 14.1208 9.28891 14.2536 9.28776C14.3864 9.2866 14.5181 9.31191 14.641 9.36219C14.7639 9.41247 14.8755 9.48672 14.9694 9.58061C15.0633 9.67451 15.1376 9.78616 15.1878 9.90905C15.2381 10.032 15.2634 10.1636 15.2623 10.2964C15.2611 10.4292 15.2335 10.5604 15.1811 10.6824C15.1287 10.8044 15.0525 10.9148 14.957 11.007L11.557 14.407C11.3695 14.5946 11.1152 14.7 10.85 14.7Z" fill="#CDCDCD"/>
</g>
</svg>
